<svg width="29" height="29" viewBox="0 0 29 29" fill="none" xmlns="http://www.w3.org/2000/svg">
<rect x="1" y="1" width="27" height="27" rx="9" stroke="black" stroke-width="2"/>
<path d="M14 9C14 10.1548 13.5156 11.7197 12.6948 12.994C11.8492 14.3069 10.8612 15 10 15C9.13882 15 8.15078 14.3069 7.30518 12.994C6.48437 11.7197 6 10.1548 6 9C6 6.79086 7.79086 5 10 5C12.2091 5 14 6.79086 14 9Z" stroke="black" stroke-width="2"/>
<circle cx="10" cy="9" r="1" fill="black"/>
<path d="M7.5 27L27 7.5V5.5L5.5 27H7.5Z" fill="black"/>
<path d="M25.5 24L18 16.5L17 17.5L24.5 25L25.5 24Z" fill="black"/>
</svg>
