<svg width="32" height="32" viewBox="0 0 32 32" fill="none" xmlns="http://www.w3.org/2000/svg">
<path d="M16.4716 6.9378L16.9139 8.26048C17.1935 9.09667 17.9764 9.66044 18.8581 9.66044H20.2083C20.7449 9.66044 20.9639 10.3502 20.5255 10.6597L19.4978 11.3854C18.7586 11.9072 18.449 12.852 18.736 13.7101L19.1435 14.9291C19.312 15.433 18.7388 15.8593 18.3047 15.5528L17.1324 14.7251C16.4236 14.2246 15.4765 14.2246 14.7676 14.7251L13.5954 15.5528C13.1613 15.8593 12.588 15.433 12.7565 14.9291L13.1641 13.7101C13.451 12.852 13.1414 11.9072 12.4023 11.3854L11.3745 10.6597C10.9362 10.3502 11.1551 9.66044 11.6917 9.66044H13.042C13.9236 9.66044 14.7066 9.09667 14.9862 8.26049L15.4284 6.9378C15.5958 6.43701 16.3042 6.43701 16.4716 6.9378Z" stroke="black" stroke-width="1.5"/>
<path d="M2.16318 24.4571C2.67985 23.4528 7.69687 19.0795 7.69687 19.0795C10.1769 22.2929 15.95 22.5941 15.95 22.5941C11.4496 28.9759 8.36316 32.9926 6.81316 29.98C6.13333 28.1171 6.60901 27.4025 5.77984 26.9675C5.1 26.6108 4.22983 26.9675 3.19651 26.4654C2.45711 26.1062 1.6465 25.4613 2.16318 24.4571Z" stroke="black" stroke-width="2"/>
<path d="M29.2337 24.4571C28.7171 23.4528 23.7 19.0795 23.7 19.0795C21.22 22.2929 15.4334 22.5941 15.4334 22.5941C19.9337 28.9759 23.0338 32.9926 24.5838 29.98C25.2636 28.1171 24.7879 27.4025 25.6171 26.9675C26.2969 26.6108 27.1671 26.9675 28.2004 26.4654C28.9398 26.1062 29.7504 25.4613 29.2337 24.4571Z" stroke="black" stroke-width="2"/>
<path d="M26.8333 11.5481C26.8333 17.3469 21.9879 22.0962 15.95 22.0962C9.91212 22.0962 5.06665 17.3469 5.06665 11.5481C5.06665 5.74933 9.91212 1 15.95 1C21.9879 1 26.8333 5.74933 26.8333 11.5481Z" stroke="black" stroke-width="2"/>
</svg>
